<svg width="34" height="34" viewBox="0 0 34 34" fill="none" xmlns="http://www.w3.org/2000/svg">
	<path d="M12.9906 22.0734C12.7214 22.0734 12.4523 21.9742 12.2398 21.7617C11.8289 21.3509 11.8289 20.6709 12.2398 20.2601L20.2581 12.2417C20.6689 11.8309 21.3489 11.8309 21.7598 12.2417C22.1706 12.6526 22.1706 13.3326 21.7598 13.7434L13.7414 21.7617C13.5431 21.9742 13.2598 22.0734 12.9906 22.0734Z" fill="#1164E7" />
	<path d="M21.0089 22.0734C20.7398 22.0734 20.4706 21.9742 20.2581 21.7617L12.2398 13.7434C11.8289 13.3326 11.8289 12.6526 12.2398 12.2417C12.6506 11.8309 13.3306 11.8309 13.7414 12.2417L21.7598 20.2601C22.1706 20.6709 22.1706 21.3509 21.7598 21.7617C21.5473 21.9742 21.2781 22.0734 21.0089 22.0734Z" fill="#1164E7" />
</svg>
